<svg width="20" height="20" viewBox="0 0 20 20" fill="none" xmlns="http://www.w3.org/2000/svg">
<path fill-rule="evenodd" clip-rule="evenodd" d="M13.2547 15.0197C11.5653 16.2644 9.46799 16.8247 7.383 16.5884C5.29802 16.352 3.37932 15.3366 2.0113 13.7454C0.643277 12.1541 -0.073026 10.1047 0.00589146 8.00772C0.0848089 5.91069 0.953118 3.92094 2.43686 2.43707C3.92061 0.953198 5.9102 0.0848159 8.00705 0.00589195C10.1039 -0.0730321 12.1531 0.643331 13.7442 2.01147C15.3353 3.3796 16.3507 5.29846 16.587 7.38362C16.8233 9.46877 16.2631 11.5662 15.0185 13.2558L19.6028 17.8388C19.7254 17.953 19.8238 18.0908 19.892 18.2439C19.9602 18.397 19.9968 18.5623 19.9998 18.7299C20.0028 18.8975 19.9719 19.0639 19.9092 19.2193C19.8464 19.3747 19.753 19.5159 19.6345 19.6344C19.516 19.753 19.3748 19.8464 19.2194 19.9092C19.064 19.9719 18.8976 20.0028 18.73 19.9998C18.5624 19.9968 18.3972 19.9602 18.2441 19.892C18.091 19.8237 17.9532 19.7254 17.839 19.6028L13.2547 15.0197ZM14.1449 8.31996C14.1449 9.8647 13.5313 11.3462 12.4391 12.4385C11.3469 13.5308 9.86554 14.1444 8.32093 14.1444C6.77632 14.1444 5.29497 13.5308 4.20276 12.4385C3.11056 11.3462 2.49696 9.8647 2.49696 8.31996C2.49696 6.77522 3.11056 5.29375 4.20276 4.20145C5.29497 3.10915 6.77632 2.49551 8.32093 2.49551C9.86554 2.49551 11.3469 3.10915 12.4391 4.20145C13.5313 5.29375 14.1449 6.77522 14.1449 8.31996Z" fill="#4567E3"/>
</svg>
