<svg width="124" height="31" viewBox="0 0 124 31" fill="none" xmlns="http://www.w3.org/2000/svg">
<path fill-rule="evenodd" clip-rule="evenodd" d="M17.712 18.432V16.704H27.648C28.152 16.704 28.404 16.452 28.404 15.948V13.86C28.404 13.38 28.152 13.14 27.648 13.14H0.755999C0.251999 13.14 0 13.38 0 13.86V15.948C0 16.452 0.251999 16.704 0.755999 16.704H10.728V18.432H1.224C0.743999 18.432 0.503999 18.672 0.503999 19.152V20.916C0.503999 21.396 0.743999 21.636 1.224 21.636H20.808V23.148H1.224C0.743999 23.148 0.503999 23.4 0.503999 23.904V29.916C0.503999 30.0196 0.515171 30.112 0.537515 30.1932C0.665323 30.1162 0.792713 30.0319 0.927883 29.9423L0.932271 29.9394C1.62946 29.4777 2.4799 28.916 4.0727 28.916C4.85876 28.916 5.47846 29.0424 6.01046 29.2556C6.5163 29.4582 6.90507 29.7266 7.20622 29.9344L7.22883 29.95C7.54577 30.1687 7.7714 30.3205 8.05517 30.4341C8.32551 30.5424 8.68935 30.6303 9.24918 30.6303C10.2422 30.6303 10.6861 30.3362 11.2808 29.9423L11.2852 29.9394C11.9824 29.4777 12.8328 28.916 14.4256 28.916C15.2117 28.916 15.8314 29.0424 16.3634 29.2556C16.8692 29.4582 17.258 29.7266 17.5592 29.9344L17.5818 29.95C17.8987 30.1687 18.1243 30.3205 18.4081 30.4341C18.6785 30.5424 19.0423 30.6303 19.6021 30.6303C20.5951 30.6303 21.039 30.3362 21.6338 29.9423L21.6382 29.9394C22.3353 29.4777 23.1858 28.916 24.7786 28.916C25.5646 28.916 26.1843 29.0424 26.7163 29.2556C27.2222 29.4582 27.6109 29.7266 27.9121 29.9344L27.9347 29.95C27.9717 29.9756 28.0064 30.0031 28.0389 30.0325C28.0423 29.9954 28.044 29.9565 28.044 29.916V28.08C28.044 27.6 27.804 27.36 27.324 27.36H7.632V25.812H27.18C27.66 25.812 27.9 25.572 27.9 25.092V19.152C27.9 18.672 27.66 18.432 27.18 18.432H17.712ZM0.683999 10.908C0.683999 11.388 0.923999 11.628 1.404 11.628H26.964C27.468 11.628 27.72 11.388 27.72 10.908V2.196C27.72 1.716 27.468 1.476 26.964 1.476H1.08C0.575999 1.476 0.323999 1.716 0.323999 2.196V4.5C0.323999 5.004 0.575999 5.256 1.08 5.256H20.916V7.848H7.488V7.056C7.488 6.576 7.236 6.336 6.732 6.336H1.404C0.923999 6.336 0.683999 6.576 0.683999 7.056V10.908ZM32.1413 24.768C31.6372 24.768 31.3852 25.008 31.3852 25.488V29.376C31.3852 29.856 31.6372 30.096 32.1413 30.096H49.7812C50.2852 30.096 50.5373 29.856 50.5373 29.376V25.488C50.5373 25.008 50.2852 24.768 49.7812 24.768H47.4772L48.3773 9.072C48.3773 8.592 48.1493 8.352 47.6932 8.352H43.2292C43.0132 8.352 42.8332 8.424 42.6893 8.568C42.5452 8.688 42.4732 8.856 42.4732 9.072L41.6452 24.768H39.2692V9.072C39.2692 8.592 39.0412 8.352 38.5853 8.352H34.0492C33.8332 8.352 33.6532 8.424 33.5093 8.568C33.3652 8.688 33.2932 8.856 33.2932 9.072V24.768H32.1413ZM53.0212 29.916C53.0212 30.396 53.2733 30.636 53.7773 30.636H58.9253C59.4292 30.636 59.6813 30.396 59.6813 29.916V2.016C59.6813 1.512 59.4292 1.26 58.9253 1.26H53.7773C53.2733 1.26 53.0212 1.512 53.0212 2.016V29.916ZM32.2492 1.98C31.7452 1.98 31.4932 2.22 31.4932 2.7V6.588C31.4932 7.068 31.7452 7.308 32.2492 7.308H49.6012C50.1053 7.308 50.3573 7.068 50.3573 6.588V2.7C50.3573 2.22 50.1053 1.98 49.6012 1.98H32.2492ZM80.6265 25.74C81.0585 24.612 81.2745 23.256 81.2745 21.672V19.116C81.2745 17.532 81.0585 16.188 80.6265 15.084C80.2185 13.956 79.6305 13.044 78.8625 12.348C78.1185 11.652 77.2185 11.148 76.1625 10.836C75.1065 10.5 73.9305 10.332 72.6345 10.332C71.3385 10.332 70.1505 10.5 69.0705 10.836C68.0145 11.148 67.1025 11.652 66.3345 12.348C65.5665 13.044 64.9665 13.956 64.5345 15.084C64.1265 16.188 63.9225 17.532 63.9225 19.116V21.672C63.9225 23.256 64.1265 24.612 64.5345 25.74C64.9665 26.844 65.5545 27.744 66.2985 28.44C67.0665 29.136 67.9785 29.64 69.0345 29.952C70.0905 30.288 71.2665 30.456 72.5625 30.456C73.8585 30.456 75.0345 30.288 76.0905 29.952C77.1705 29.64 78.0945 29.136 78.8625 28.44C79.6305 27.744 80.2185 26.844 80.6265 25.74ZM84.1185 29.916C84.1185 30.396 84.3705 30.636 84.8745 30.636H90.0225C90.5265 30.636 90.7785 30.396 90.7785 29.916V18.216H92.6505C93.1305 18.216 93.3705 17.976 93.3705 17.496V12.708C93.3705 12.204 93.1305 11.952 92.6505 11.952H90.7785V2.016C90.7785 1.512 90.5265 1.26 90.0225 1.26H84.8745C84.3705 1.26 84.1185 1.512 84.1185 2.016V29.916ZM63.9585 3.852C63.4545 3.852 63.2025 4.092 63.2025 4.572V8.46C63.2025 8.94 63.4545 9.18 63.9585 9.18H81.2385C81.7425 9.18 81.9945 8.94 81.9945 8.46V4.572C81.9945 4.092 81.7425 3.852 81.2385 3.852H75.8385V0.755998C75.8385 0.251999 75.5865 0 75.0825 0H70.1145C69.6105 0 69.3585 0.251999 69.3585 0.755998V3.852H63.9585ZM74.4345 16.596C74.7705 17.196 74.9385 18.036 74.9385 19.116V21.672C74.9385 22.752 74.7585 23.604 74.3985 24.228C74.0625 24.828 73.4505 25.128 72.5625 25.128C71.6985 25.128 71.0985 24.828 70.7625 24.228C70.4265 23.604 70.2585 22.752 70.2585 21.672V19.116C70.2585 18.036 70.4265 17.196 70.7625 16.596C71.1225 15.972 71.7465 15.66 72.6345 15.66C73.4985 15.66 74.0985 15.972 74.4345 16.596ZM113.056 30.24V24.948H122.992C123.496 24.948 123.748 24.684 123.748 24.156V20.34C123.748 19.86 123.496 19.62 122.992 19.62H96.0997C95.5957 19.62 95.3438 19.86 95.3438 20.34V24.156C95.3438 24.684 95.5957 24.948 96.0997 24.948H106.072V30.24C106.072 30.72 106.312 30.96 106.792 30.96H112.336C112.816 30.96 113.056 30.72 113.056 30.24ZM103.84 17.064C103.984 16.944 104.116 16.812 104.236 16.668L116.224 2.556C116.392 2.34 116.428 2.136 116.332 1.944C116.26 1.728 116.092 1.62 115.828 1.62H108.484C108.292 1.62 108.124 1.68 107.98 1.8C107.836 1.896 107.704 2.028 107.584 2.196L95.7757 16.38C95.5837 16.62 95.5597 16.824 95.7038 16.992C95.8477 17.16 96.0638 17.244 96.3517 17.244H103.336C103.552 17.244 103.72 17.184 103.84 17.064ZM110.392 11.16C110.152 11.472 110.152 11.796 110.392 12.132L114.82 16.668C114.94 16.812 115.06 16.944 115.18 17.064C115.324 17.184 115.504 17.244 115.72 17.244H122.884C123.172 17.244 123.388 17.16 123.532 16.992C123.676 16.8 123.652 16.596 123.46 16.38L114.64 7.272C114.28 6.864 113.944 6.876 113.632 7.308L110.392 11.16Z" fill="white"/>
</svg>
